<?xml version="1.0" encoding="UTF-8"?>
<svg width="23px" height="32px" viewBox="0 0 23 32" version="1.1" xmlns="http://www.w3.org/2000/svg" xmlns:xlink="http://www.w3.org/1999/xlink">
    <title>Gurukulam</title>
    <g id="Page-1" stroke="none" stroke-width="1" fill="none" fill-rule="evenodd">
        <g id="Gurukulam" transform="translate(0.210000, 0.000000)" fill-rule="nonzero">
            <path d="M9.65180952,22.3492063 C4.32965079,22.3492063 0.00101587302,18.0190476 0.00101587302,12.6984127 C0.00101587302,7.37777778 4.33066667,3.04761905 9.65180952,3.04761905 C14.9729524,3.04761905 19.3026032,7.37726984 19.3026032,12.6984127 C19.3026032,18.0195556 14.9734603,22.3492063 9.65180952,22.3492063 Z M9.65180952,7.63022222 C6.85348466,7.63050278 4.58514296,9.89907198 4.58514296,12.6973969 C4.58514296,15.4957217 6.85348477,17.7642909 9.65180964,17.7645714 C12.4501345,17.7648519 14.718931,15.4967375 14.7194921,12.6984127 C14.7172521,9.90037277 12.4498489,7.63251507 9.65180952,7.62971429 L9.65180952,7.63022222 Z" id="Shape" fill="#4829B2"></path>
            <path d="M9.65180952,22.3492063 C4.32965079,22.3492063 0.00101587302,26.6788571 0.00101587302,32 L4.58615873,32 C4.58615873,29.2017573 6.85458266,26.9333333 9.6528254,26.9333333 C12.4510681,26.9333333 14.7194921,29.2017573 14.7194921,32 L19.3046349,32 C19.303619,26.6778413 14.9734603,22.3492063 9.65180952,22.3492063 Z" id="Path" fill="#4829B2"></path>
            <circle id="Oval" fill="#4829B2" cx="19.303619" cy="2.55746032" r="2.55746032"></circle>
            <path d="M1.15491391e-14,32 L5.48571429,29.1205079 C4.89787363,29.9655373 4.58353125,30.9706174 4.58514286,32 L1.15491391e-14,32 Z" id="Path" fill="#231F20" style="mix-blend-mode: soft-light;"></path>
            <path d="M19.303619,32 L14.7194921,32 C14.7212165,30.9705231 14.4066713,29.9653615 13.8184127,29.1205079 L19.303619,32 Z" id="Path" fill="#231F20" style="mix-blend-mode: soft-light;"></path>
        </g>
    </g>
</svg>