<?xml version="1.0" encoding="UTF-8"?>
<svg width="12px" height="16px" viewBox="0 0 12 16" version="1.1" xmlns="http://www.w3.org/2000/svg" xmlns:xlink="http://www.w3.org/1999/xlink">
    <title>Group</title>
    <g id="Page-1" stroke="none" stroke-width="1" fill="none" fill-rule="evenodd">
        <g id="Group" transform="translate(0.210000, 0.000000)" fill-rule="nonzero">
            <path d="M4.82590476,11.1746032 C2.1648254,11.1746032 0.000507936508,9.00952381 0.000507936508,6.34920635 C0.000507936508,3.68888889 2.16533333,1.52380952 4.82590476,1.52380952 C7.48647619,1.52380952 9.65130159,3.68863492 9.65130159,6.34920635 C9.65130159,9.00977778 7.48673016,11.1746032 4.82590476,11.1746032 Z M4.82590476,3.81511111 C3.42674233,3.81525139 2.29257148,4.94953599 2.29257148,6.34869843 C2.29257148,7.74786087 3.42674239,8.88214544 4.82590482,8.88228569 C6.22506726,8.88242594 7.35946552,7.74836876 7.35974603,6.34920635 C7.35862606,4.95018639 6.22492447,3.81625754 4.82590476,3.81485714 L4.82590476,3.81511111 Z" id="Shape" fill="#4829B2"></path>
            <path d="M4.82590476,11.1746032 C2.1648254,11.1746032 0.000507936508,13.3394286 0.000507936508,16 L2.29307937,16 C2.29307937,14.6008786 3.42729133,13.4666667 4.8264127,13.4666667 C6.22553406,13.4666667 7.35974603,14.6008786 7.35974603,16 L9.65231746,16 C9.65180952,13.3389206 7.48673016,11.1746032 4.82590476,11.1746032 Z" id="Path" fill="#4829B2"></path>
            <circle id="Oval" fill="#4829B2" cx="9.65180952" cy="1.27873016" r="1.27873016"></circle>
            <path d="M0,16 L2.74285714,14.560254 C2.44893682,14.9827686 2.29176563,15.4853087 2.29257143,16 L0,16 Z" id="Path" fill="#231F20" style="mix-blend-mode: soft-light;"></path>
            <path d="M9.65180952,16 L7.35974603,16 C7.36060826,15.4852615 7.20333567,14.9826807 6.90920635,14.560254 L9.65180952,16 Z" id="Path" fill="#231F20" style="mix-blend-mode: soft-light;"></path>
        </g>
    </g>
</svg>