<?xml version="1.0" encoding="UTF-8"?>
<svg width="213px" height="36px" viewBox="0 0 213 36" version="1.1" xmlns="http://www.w3.org/2000/svg" xmlns:xlink="http://www.w3.org/1999/xlink">
    <title>logo-white</title>
    <g id="Page-1" stroke="none" stroke-width="1" fill="none" fill-rule="evenodd">
        <g id="logo-white" fill="#FFFFFF">
            <g id="Group" fill-rule="nonzero">
                <path d="M10.8214286,25.0714286 C4.85369549,25.0714286 0,20.2160244 0,14.25 C0,8.28397556 4.85483459,3.42857143 10.8214286,3.42857143 C16.7880226,3.42857143 21.6428571,8.28340602 21.6428571,14.25 C21.6428571,20.216594 16.7885921,25.0714286 10.8214286,25.0714286 Z M10.8214286,8.56704135 C7.68366874,8.56735595 5.14017869,11.1111011 5.14017869,14.2488609 C5.14017869,17.3866208 7.68366887,19.9303659 10.8214287,19.9306804 C13.9591885,19.9309949 16.5031886,17.3877598 16.5038177,14.25 C16.501306,11.1125597 13.9588683,8.56961232 10.8214286,8.5664718 L10.8214286,8.56704135 Z" id="Shape"></path>
                <path d="M10.8202896,25.0714286 C4.85318463,25.0714286 0,29.9743308 0,36 L5.14077653,36 C5.14077653,32.8312662 7.68409108,30.2625 10.8214286,30.2625 C13.9587661,30.2625 16.5020806,32.8312662 16.5020806,36 L21.6428571,36 C21.6417182,29.9731805 16.7868251,25.0714286 10.8202896,25.0714286 Z" id="Path"></path>
                <circle id="Oval" cx="21.75" cy="2.89285714" r="2.89285714"></circle>
                <path d="M0,36 L6.21428571,32.7857143 C5.54837247,33.7289938 5.19228149,34.8509328 5.19410714,36 L0,36 Z" id="Path" style="mix-blend-mode: soft-light;"></path>
                <path d="M21.8571429,36 L16.6637056,36 C16.6656593,34.8508275 16.3093056,33.7287975 15.6428571,32.7857143 L21.8571429,36 Z" id="Path" style="mix-blend-mode: soft-light;"></path>
            </g>
            <text id="Gurukulam" font-family="Metropolis-Bold, Metropolis" font-size="34" font-weight="bold">
                <tspan x="28.6428571" y="34">Gurukulam</tspan>
            </text>
        </g>
    </g>
</svg>